<?xml version="1.0" encoding="UTF-8" standalone="no"?>
<!-- Uploaded to: SVG Repo, www.svgrepo.com, Transformed by: SVG Repo Mixer Tools -->

<svg
   width="800px"
   height="800px"
   viewBox="0 0 14 14"
   role="img"
   focusable="false"
   aria-hidden="true"
   fill="#000000"
   version="1.1"
   id="svg844"
   sodipodi:docname="cenergija-logo.svg"
   inkscape:version="1.1.2 (b8e25be833, 2022-02-05)"
   xmlns:inkscape="http://www.inkscape.org/namespaces/inkscape"
   xmlns:sodipodi="http://sodipodi.sourceforge.net/DTD/sodipodi-0.dtd"
   xmlns="http://www.w3.org/2000/svg"
   xmlns:svg="http://www.w3.org/2000/svg">
  <defs
     id="defs848" />
  <sodipodi:namedview
     id="namedview846"
     pagecolor="#ffffff"
     bordercolor="#666666"
     borderopacity="1.0"
     inkscape:pageshadow="2"
     inkscape:pageopacity="0.0"
     inkscape:pagecheckerboard="0"
     showgrid="false"
     inkscape:zoom="1.045"
     inkscape:cx="221.5311"
     inkscape:cy="395.21531"
     inkscape:window-width="1920"
     inkscape:window-height="1129"
     inkscape:window-x="1912"
     inkscape:window-y="-8"
     inkscape:window-maximized="1"
     inkscape:current-layer="SVGRepo_iconCarrier" />
  <g
     id="SVGRepo_bgCarrier"
     stroke-width="0" />
  <g
     id="SVGRepo_tracerCarrier"
     stroke-linecap="round"
     stroke-linejoin="round" />
  <g
     id="SVGRepo_iconCarrier">
    <path
       fill="#3f51b5"
       d="M 7.3157895,0.99999993 1.3789474,6.9368419 c -0.50526315,0.5052632 -0.50526315,1.2947368 0,1.8 l 3.8842105,3.8842111 c 0.5052632,0.505263 1.2947368,0.505263 1.8,0 L 13,6.6842103 V 2.2631578 C 13,1.5684209 12.431579,0.99999993 11.736842,0.99999993 Z M 11.105263,3.5263156 c -0.347368,0 -0.631579,-0.2842105 -0.631579,-0.6315789 0,-0.3473684 0.284211,-0.6315789 0.631579,-0.6315789 0.347369,0 0.631579,0.2842105 0.631579,0.6315789 0,0.3473684 -0.28421,0.6315789 -0.631579,0.6315789 z"
       id="path839"
       style="fill:#303c6c;fill-opacity:1" />
    <path
       d="m 9.5852062,6.4008088 -0.09416,-0.094091 0.8302108,-0.830828 C 10.434719,5.3623433 10.434649,5.1740924 10.321102,5.06063 10.207556,4.9471681 10.019305,4.9472376 9.9058425,5.0607841 L 9.0756312,5.8916122 8.1063319,4.9230324 8.9365432,4.0922044 c 0.113462,-0.1135466 0.113392,-0.301798 -1.54e-4,-0.4152599 -0.113547,-0.1134623 -0.301798,-0.1133924 -0.41526,1.542e-4 L 7.6909178,4.5079267 7.596757,4.4138358 C 7.3059672,4.1232618 6.8298027,4.1234387 6.5392287,4.4142285 L 5.1306365,5.8238669 c -0.6088216,0.6092738 -0.691534,1.5228763 8.226e-4,2.214719 l 0.2077071,0.2075528 -1.6604231,1.661656 c -0.1134627,0.1135473 -0.1133924,0.3017983 1.542e-4,0.4152603 0.1135467,0.113462 0.3017972,0.113393 0.4152598,-1.54e-4 l 1.6604231,-1.6616565 0.207707,0.2075528 c 0.6923566,0.6918424 1.6058974,0.6084524 2.214719,-8.217e-4 l 1.408592,-1.4096385 c 0.290574,-0.2907898 0.290398,-0.7669542 -3.92e-4,-1.0575283 z"
       fill="#292d32"
       id="path1098"
       style="stroke-width:0.391511;fill:#fbe8a6;fill-opacity:1" />
  </g>
</svg>
